<svg width="400" height="266" viewBox="0 0 400 266" fill="none" xmlns="http://www.w3.org/2000/svg">
<rect width="400" height="266" rx="8" fill="white"/>
<path d="M134.4 108.4C134.4 112.1 134.8 115.1 135.5 117.3C136.3 119.5 137.3 121.9 138.7 124.5C139.2 125.3 139.4 126.1 139.4 126.8C139.4 127.8 138.8 128.8 137.5 129.8L131.2 134C130.3 134.6 129.4 134.9 128.6 134.9C127.6 134.9 126.6 134.4 125.6 133.5C124.2 132 123 130.4 122 128.8C121 127.1 120 125.2 118.9 122.9C111.1 132.1 101.3 136.7 89.5 136.7C81.1 136.7 74.4 134.3 69.5 129.5C64.6 124.7 62.1 118.3 62.1 110.3C62.1 101.8 65.1 94.9 71.2 89.7C77.3 84.5 85.4 81.9 95.7 81.9C99.1 81.9 102.6 82.2 106.3 82.7C110 83.2 113.8 84 117.8 84.9V77.6C117.8 70 116.2 64.7 113.1 61.6C109.9 58.5 104.5 57 96.8 57C93.3 57 89.7 57.4 86 58.3C82.3 59.2 78.7 60.3 75.2 61.7C73.6 62.4 72.4 62.8 71.7 63C71 63.2 70.5 63.3 70.1 63.3C68.7 63.3 68 62.3 68 60.2V55.3C68 53.7 68.2 52.5 68.7 51.8C69.2 51.1 70.1 50.4 71.5 49.7C75 47.9 79.2 46.4 84.1 45.2C89 43.9 94.2 43.3 99.7 43.3C111.6 43.3 120.3 46 125.9 51.4C131.4 56.8 134.2 65 134.2 76V108.4H134.4ZM93.8 123.6C97.1 123.6 100.5 123 104.1 121.8C107.7 120.6 110.9 118.4 113.6 115.4C115.2 113.5 116.4 111.4 117 109C117.6 106.6 118 103.7 118 100.3V96.1C115.1 95.4 112 94.8 108.8 94.4C105.6 94 102.5 93.8 99.4 93.8C92.7 93.8 87.8 95.1 84.5 97.8C81.2 100.5 79.6 104.3 79.6 109.3C79.6 114 80.8 117.5 83.3 119.9C85.7 122.4 89.2 123.6 93.8 123.6ZM174.1 134.4C172.3 134.4 171.1 134.1 170.3 133.4C169.5 132.8 168.8 131.4 168.2 129.5L144.7 52.2C144.1 50.2 143.8 48.9 143.8 48.2C143.8 46.6 144.6 45.7 146.2 45.7H156C157.9 45.7 159.2 46 159.9 46.7C160.7 47.3 161.3 48.7 161.9 50.6L178.7 116.8L194.3 50.6C194.8 48.6 195.4 47.3 196.2 46.7C197 46.1 198.4 45.7 200.2 45.7H208.2C210.1 45.7 211.4 46 212.2 46.7C213 47.3 213.7 48.7 214.1 50.6L229.9 117.6L247.2 50.6C247.8 48.6 248.5 47.3 249.2 46.7C250 46.1 251.3 45.7 253.1 45.7H262.4C264 45.7 264.9 46.5 264.9 48.2C264.9 48.7 264.8 49.2 264.7 49.8C264.6 50.4 264.4 51.2 264 52.3L239.9 129.6C239.3 131.6 238.6 132.9 237.8 133.5C237 134.1 235.7 134.5 234 134.5H225.4C223.5 134.5 222.2 134.2 221.4 133.5C220.6 132.8 219.9 131.5 219.5 129.5L204 65L188.6 129.4C188.1 131.4 187.5 132.7 186.7 133.4C185.9 134.1 184.5 134.4 182.7 134.4H174.1ZM302.6 137.1C297.4 137.1 292.2 136.5 287.2 135.3C282.2 134.1 278.3 132.8 275.7 131.3C274.1 130.4 273 129.4 272.6 128.5C272.2 127.6 272 126.6 272 125.7V120.6C272 118.5 272.8 117.5 274.3 117.5C274.9 117.5 275.5 117.6 276.1 117.8C276.7 118 277.6 118.4 278.6 118.8C282 120.3 285.7 121.5 289.6 122.3C293.6 123.1 297.5 123.5 301.5 123.5C307.8 123.5 312.7 122.4 316.1 120.2C319.5 118 321.3 114.8 321.3 110.7C321.3 107.9 320.4 105.6 318.6 103.7C316.8 101.8 313.4 100.1 308.5 98.5L294 94C286.7 91.7 281.3 88.3 278 83.8C274.7 79.4 273 74.5 273 69.3C273 65.1 273.9 61.4 275.7 58.2C277.5 55 279.9 52.2 282.9 50C285.9 47.7 289.3 46 293.3 44.8C297.3 43.6 301.5 43.1 305.9 43.1C308.1 43.1 310.4 43.2 312.6 43.5C314.9 43.8 317 44.2 319.1 44.6C321.1 45.1 323 45.6 324.8 46.2C326.6 46.8 328 47.4 329 48C330.4 48.8 331.4 49.6 332 50.5C332.6 51.3 332.9 52.4 332.9 53.8V58.5C332.9 60.6 332.1 61.7 330.6 61.7C329.8 61.7 328.5 61.3 326.8 60.5C321.1 57.9 314.7 56.6 307.6 56.6C301.9 56.6 297.4 57.5 294.3 59.4C291.2 61.3 289.6 64.2 289.6 68.3C289.6 71.1 290.6 73.5 292.6 75.4C294.6 77.3 298.3 79.2 303.6 80.9L317.8 85.4C325 87.7 330.2 90.9 333.3 95C336.4 99.1 337.9 103.8 337.9 109C337.9 113.3 337 117.2 335.3 120.6C333.5 124 331.1 127 328 129.4C324.9 131.9 321.2 133.7 316.9 135C312.4 136.4 307.7 137.1 302.6 137.1Z" fill="#252F3E"/>
<path fill-rule="evenodd" clip-rule="evenodd" d="M321.5 185.7C288.6 210 240.8 222.9 199.7 222.9C142.1 222.9 90.2 201.6 51 166.2C47.9 163.4 50.7 159.6 54.4 161.8C96.8 186.4 149.1 201.3 203.2 201.3C239.7 201.3 279.8 193.7 316.7 178.1C322.2 175.6 326.9 181.7 321.5 185.7Z" fill="#FF9900"/>
<path fill-rule="evenodd" clip-rule="evenodd" d="M335.2 170.1C331 164.7 307.4 167.5 296.7 168.8C293.5 169.2 293 166.4 295.9 164.3C314.7 151.1 345.6 154.9 349.2 159.3C352.8 163.8 348.2 194.7 330.6 209.5C327.9 211.8 325.3 210.6 326.5 207.6C330.5 197.7 339.4 175.4 335.2 170.1Z" fill="#FF9900"/>
</svg>
